<?xml version="1.0" encoding="utf-8"?>
<!-- Generator: Adobe Illustrator 23.0.3, SVG Export Plug-In . SVG Version: 6.00 Build 0)  -->
<svg version="1.1" id="Layer_1" xmlns="http://www.w3.org/2000/svg" xmlns:xlink="http://www.w3.org/1999/xlink" x="0px" y="0px"
	 viewBox="0 0 300 173.4" style="enable-background:new 0 0 300 173.4;" xml:space="preserve">
<style type="text/css">
	.st0{fill:#6FB8D7;}
	.st1{fill:#A1D0E4;}
	.st2{fill:#E7F2F8;}
	.st3{fill:#E5F1F7;}
	.st4{fill:#A3D1E4;}
	.st5{fill:#C4E3EF;}
	.st6{fill:#C6E3EE;}
	.st7{fill:#0181B8;}
	.st8{fill:#E4423D;}
	.st9{fill:#0682B8;}
	.st10{fill:#E13A33;}
	.st11{fill:#E33934;}
	.st12{fill:#E23D36;}
	.st13{fill:#E23C38;}
	.st14{fill:#E03B32;}
	.st15{fill:#E23C35;}
	.st16{fill:#E23B35;}
	.st17{fill:#E13630;}
	.st18{fill:#E33933;}
	.st19{fill:#E23933;}
	.st20{fill:#E23831;}
	.st21{fill:#2190BF;}
	.st22{fill:#E33B35;}
	.st23{fill:#E13D36;}
</style>
<path class="st0" d="M158.6,3.2c1.6,0,3.1,0,4.7,0c0.1,0.1,0,0.2-0.1,0.3c-1.5,0.3-3,0.3-4.6,0C158.6,3.4,158.6,3.3,158.6,3.2z"/>
<path class="st1" d="M158.6,3.2c0,0,0,0.1,0,0.1c-0.6,0.5-1.2,0.3-1.8,0.1c-0.1-0.1-0.1-0.2-0.1-0.3C157.3,3.2,158,3.2,158.6,3.2z"
	/>
<path class="st2" d="M153.5,3.3c0,0,0-0.1,0-0.1c0.6,0,1.2,0,1.7,0c0.1,0.1,0,0.2-0.1,0.3C154.6,3.6,154.1,3.8,153.5,3.3z"/>
<path class="st3" d="M168.2,3.2c0,0,0,0.1,0,0.1c-0.5,0.4-1.1,0.3-1.7,0.1c-0.1-0.1-0.1-0.2-0.1-0.3C167.1,3.2,167.7,3.2,168.2,3.2z
	"/>
<path class="st4" d="M163.4,3.3c0-0.1,0-0.1,0-0.2c0.6,0,1.2,0,1.7,0c0.1,0.1,0,0.2-0.1,0.3C164.4,3.6,163.9,3.7,163.4,3.3z"/>
<path class="st5" d="M165.1,3.3c0,0,0-0.1,0-0.1c0.5,0,0.9,0,1.4,0c0,0,0,0.1,0,0.1C166,3.7,165.6,3.7,165.1,3.3z"/>
<path class="st6" d="M155.3,3.3c0,0,0-0.1,0-0.1c0.5,0,0.9,0,1.4,0c0,0,0,0.1,0,0.1C156.2,3.7,155.8,3.7,155.3,3.3z"/>
<path class="st7" d="M155.3,3.3c0.5,0,0.9,0,1.4,0c0.6,0,1.3,0,1.9,0c1.6,0,3.2,0,4.7,0c0.6,0,1.2,0,1.7,0c0.5,0,0.9,0,1.4,0
	c0.6,0,1.2,0,1.7,0c4.3,0.2,8.7,0.3,13,0.6c3.4,0.2,6.8,0.5,10.2,1c3.5,0.5,7,0.8,10.5,1.3c3.6,0.6,7.2,1.3,10.9,1.9
	c3.5,0.6,6.9,1.5,10.3,2.3c5,1.2,9.9,2.7,14.8,4.3c5.2,1.7,10.3,3.7,15.3,5.9c3.4,1.6,6.8,3.3,10.1,5.1c4.3,2.4,8.4,5.1,12.3,8.2
	c3.1,2.4,6,5.1,8.6,8c4,4.5,7.3,9.5,9.3,15.3c1.7,4.8,2.4,9.8,1.9,14.9c-0.5,4.2-1.5,8.2-3.3,12c-1.8,3.9-4,7.4-6.7,10.7
	c-0.9,1.2-2,2.2-2.8,3.4c-0.3,0.4-0.7,0.5-1.1,0.5c-2.3,0.1-4.6,0.3-6.9-0.3c-0.7-0.2-0.8-0.3-0.3-0.8c2.2-2.2,4.2-4.7,5.8-7.4
	c2.7-4.4,4.6-9,5-14.2c0.5-5.8-0.6-11.2-3.1-16.3c-1.5-3-3.3-5.8-5.5-8.4c-2.5-3-5.4-5.7-8.4-8.2c-2.6-2.1-5.3-4.1-8.1-5.9
	c-3.1-1.9-6.2-3.7-9.5-5.3c-4.3-2.2-8.7-4.1-13.2-5.8c-7.1-2.7-14.4-5-21.8-6.8c-6.5-1.7-13.2-3-19.8-4c-4.1-0.7-8.2-1.1-12.3-1.6
	c-5-0.7-10-0.9-15-1.3c-8.2-0.5-16.5-0.6-24.7-0.4c-4.9,0.1-9.7,0.3-14.6,0.7c-4.2,0.3-8.4,0.8-12.6,1.3c-6.1,0.8-12.3,1.7-18.4,2.9
	c-3.4,0.7-6.7,1.4-10,2.2C81.1,20.9,74,23.1,67,25.7c-3.5,1.3-7,2.8-10.5,4.4c-4.8,2.2-9.4,4.7-13.9,7.5c-4.1,2.6-7.9,5.5-11.4,8.7
	c-3.6,3.3-6.7,7.1-9.2,11.3c-3.1,5.5-4.8,11.4-4.3,17.8c0.3,4.2,1.6,8.1,3.5,11.8c2.1,4.1,4.9,7.7,8.1,11c2.8,2.9,6,5.5,9.3,7.9
	c2.7,1.9,5.5,3.7,8.3,5.4c5.2,2.9,10.5,5.5,16,7.7c5.5,2.3,11.2,4.2,16.9,5.9c6.4,1.9,12.9,3.5,19.5,4.7c4.1,0.8,8.3,1.5,12.4,2.1
	c3.1,0.5,6.3,0.7,9.4,1.1c6,0.7,12.1,1.1,18.2,1.3c7,0.2,14,0.4,21.1,0.1c3.2-0.1,6.5-0.2,9.7-0.4c3.3-0.1,6.7-0.5,10-0.8
	c3.2-0.4,6.3-0.7,9.5-1.1c4-0.5,8-1.2,12-1.9c4.9-0.8,9.7-2,14.5-3.2c4.1-1,8.3-2.2,12.3-3.5c4.3-1.4,8.5-2.9,12.7-4.7
	c3.1-1.3,6.1-2.6,9.1-4.1c4.1-2,8-4.3,11.8-6.8c0.4-0.3,0.9-0.5,1.3-0.9c1.4-1.4,3.2-1.3,4.9-1.5c2.8-0.3,5.5-1,8.1-2.1
	c0.3-0.2,0.7-0.3,1.2-0.3c-1.5,1.6-3.2,2.9-4.9,4.2c-1.7,1.3-3.4,2.5-5.1,3.7c-2.8,1.9-5.7,3.7-8.6,5.4c-2.1,1.2-4.1,2.3-6.3,3.4
	c-4.3,2.2-8.7,4.1-13.1,6c-3.2,1.3-6.5,2.6-9.8,3.7c-4.7,1.6-9.4,3.1-14.2,4.3c-6.5,1.7-13,3.2-19.6,4.5c-4.1,0.8-8.2,1.4-12.4,2
	c-4.3,0.6-8.7,1.1-13.1,1.5c-3.3,0.3-6.6,0.6-9.9,0.8c-7.8,0.4-15.6,0.6-23.4,0.5c-5.6-0.1-11.1-0.2-16.7-0.7
	c-5.1-0.4-10.1-1-15.1-1.7c-8.1-1-16.2-2.6-24.2-4.4c-5-1.2-10-2.6-14.9-4.2c-4.2-1.4-8.3-2.9-12.4-4.6c-4.3-1.8-8.5-3.8-12.6-6
	c-3.3-1.8-6.5-3.8-9.6-5.9c-5.2-3.6-9.9-7.6-14-12.4c-2.6-3-4.8-6.3-6.5-9.9C8.6,88.2,7.3,82.7,7.4,77c0-2.4,0.4-4.7,0.9-7.1
	c1.4-6.3,4.4-11.9,8.2-17c1.7-2.3,3.7-4.5,5.7-6.6c3.1-3.1,6.5-6,10-8.6c3.3-2.5,6.7-4.7,10.3-6.8c4.2-2.5,8.6-4.8,13-6.8
	c3.5-1.6,7.1-3.2,10.7-4.5c6.6-2.6,13.4-4.7,20.2-6.7c2.9-0.8,5.9-1.6,8.9-2.3c6.6-1.5,13.3-2.8,19.9-3.9c4.7-0.7,9.5-1.3,14.2-1.8
	c4.4-0.5,8.8-0.9,13.2-1.1c3.6-0.1,7.2-0.3,10.8-0.5C154.1,3.3,154.7,3.3,155.3,3.3z"/>
<path class="st8" d="M134.2,101.4c-1.6,0-3.1-0.3-4.7-0.4c-3.5-0.3-6.8-1.2-10.1-2.2c-2.2-0.7-4.1-2-5.8-3.4c-3.1-2.4-5.6-5.5-7.4-9
	c-1.4-3-2.4-6.1-2.6-9.5c-0.4-5.2,0.4-10.1,2.9-14.6c1.8-3.5,4.4-6.3,7.6-8.6c3.6-2.6,7.7-4.3,12-5.5c2.7-0.7,5.4-1.2,8.2-1.3
	c1.5,0.1,3,0.1,4.5,0c2.3,0.1,4.7,0.5,6.9,1c1.3,0.3,2.5,0.7,3.7,1.1c0.6,0.2,0.8,0.5,0.9,1.1c0.5,3.4,1.1,6.8,1.7,10.3
	c0,0.1,0,0.1-0.1,0.3c-1.2-1.1-2.5-2-3.9-2.8c-2.6-1.5-5.3-2.3-8.2-2.5c-3.6-0.3-7.1,0.2-10.5,1.5c-2.1,0.7-3.9,2-5.5,3.4
	c-1.7,1.5-3.1,3.3-4,5.3c-1.4,3-1.9,6.1-1.5,9.4c0.3,2.6,1,5.1,2.2,7.5c1.5,2.8,3.4,5.2,6,7c2.7,1.8,5.8,2.8,9.1,3
	c0.3,0,0.6,0.1,0.9,0.2c1.3,0.2,2.7,0.2,4,0c0.5-0.3,1.1-0.1,1.6-0.2c0.5-0.1,0.7-0.3,0.7-0.8c0-3.8,0-7.5,0-11.3
	c0-0.9,0.1-1.7,0-2.6c-0.2-1.3-0.8-2.3-1.8-3.2c0-0.3,0.2-0.3,0.4-0.3c4.7,0,9.3,0,14,0c0.4,0,0.6,0.1,0.6,0.5c0,0.1,0,0.3,0,0.4
	c0,7.5,0,15,0,22.5c0,0.4,0.2,0.8-0.3,1c-2.3,0.8-4.6,1.3-7,1.7c-2.8,0.5-5.7,0.7-8.6,0.9C138.1,101.3,136.1,101.3,134.2,101.4z"/>
<path class="st8" d="M193.7,79.9c-0.5-0.6-1.1-0.7-1.8-0.7c-4.8,0-9.6,0-14.4,0c-1.3,0-1.3,0-1.3,1.3c0,3.9,0,7.8,0,11.7
	c0,0.7,0.2,0.8,0.9,0.8c5.7,0,11.5,0,17.2,0c2.3,0,4.1-0.8,5.4-2.8c0.1-0.2,0.2-0.6,0.6-0.5c-0.5,2.2-1.1,4.4-1.6,6.6
	c-0.3,1.3-0.6,2.5-0.8,3.8c-0.1,0.5-0.3,0.9-1,0.9c-13,0-26,0-39.1,0c-0.1,0-0.2,0-0.4-0.1c0.7-0.4,1.4-0.9,1.9-1.6
	c1-1.4,1.5-2.9,1.6-4.6c0-0.3-0.1-0.7,0.2-1c0.2-0.2,0.1-0.5,0.1-0.8c0-12.3,0-24.5,0-36.8c0-0.3,0.1-0.5-0.1-0.8
	c-0.3-1.1-0.3-2.3-0.8-3.4c-0.4-0.9-0.9-1.6-1.8-2.1c0-0.2,0-0.3,0.2-0.3c0.2,0,0.4,0,0.6,0c12.1,0,24.2,0,36.3,0c0.2,0,0.5,0,0.7,0
	c0.2,0.4,0.1,0.9,0.1,1.4c0,2.4,0,4.9,0,7.3c0,0.3,0.1,0.6-0.1,0.8c-1-1.8-2.5-2.5-4.5-2.5c-5.3,0-10.6,0-15.9,0
	c-0.2,0.1-0.1,0.4-0.1,0.6c0,4.7,0,9.3,0,14c0,0.2,0,0.4,0.1,0.5c0.3,0.2,0.6,0.1,0.8,0.1c5,0,9.9,0,14.9,0c0.8,0,1.6-0.1,2.1-0.8
	c0.3,0,0.3,0.2,0.3,0.4c0,2.7,0,5.4,0,8.1C194,79.7,194.1,79.9,193.7,79.9z"/>
<path class="st7" d="M148.5,152c-1.8,0.5-2.3,2.1-3,3.5c-1.2,2.4-2.5,4.8-3.8,7.3c-0.9,1.8-1.8,3.5-2.7,5.3
	c-0.1,0.3-0.3,0.5-0.6,0.4c-0.5,0-0.3-0.4-0.4-0.6c-0.5-3.7-1-7.4-1.4-11c-0.5-0.1-0.5,0.4-0.6,0.6c-1.8,3.5-3.5,6.9-5.3,10.4
	c-0.1,0.2-0.1,0.3-0.2,0.5c-0.1,0.2-0.3,0.2-0.5,0.2c-0.3,0-0.3-0.2-0.3-0.4c-0.3-2.4-0.7-4.8-1-7.1c-0.4-2.4-0.7-4.8-1-7.2
	c-0.1-0.9-0.5-1.4-1.4-1.5c-0.2,0-0.6,0-0.5-0.3c0.1-0.3,0.4-0.2,0.6-0.2c2,0,3.9,0,5.9,0c0.2,0,0.6-0.2,0.6,0.2
	c0,0.3-0.3,0.3-0.5,0.3c-0.7,0.2-1.1,0.6-1,1.3c0.3,2.8,0.7,5.5,1,8.3c0,0.1,0.1,0.1,0.1,0.3c0.6-0.6,0.8-1.4,1.2-2
	c0.8-1.6,1.6-3.1,2.4-4.7c0.7-1.3,0.2-2.6-1.2-3.2c-0.1-0.1-0.4-0.1-0.4-0.3c0-0.2,0.3-0.2,0.4-0.2c2,0,4,0,6,0c0.2,0,0.4,0,0.4,0.2
	c0,0.3-0.2,0.2-0.4,0.3c-1.2,0.4-1.3,0.6-1.2,1.9c0.3,2.6,0.6,5.2,0.9,7.8c0,0.1,0,0.3,0.2,0.3c0.2,0,0.2-0.1,0.3-0.2
	c1.3-2.7,2.7-5.4,4-8.1c0.4-0.9,0.1-1.4-1-1.7c-0.2,0-0.6,0.1-0.5-0.3c0-0.3,0.4-0.2,0.6-0.2c1.4,0,2.8,0,4.2,0
	C148.5,151.8,148.5,151.9,148.5,152z"/>
<path class="st7" d="M54.7,162.1c1.4-1,2.8-1.9,3.9-3.2c0.6-0.7,0.5-1-0.4-1.2c-0.2,0-0.6,0-0.6-0.4c0-0.5,0.4-0.3,0.6-0.3
	c1.4,0,2.8,0,4.2,0c0.2,0,0.6-0.1,0.6,0.3c0,0.3-0.2,0.3-0.5,0.4c-1.2,0.3-2.1,1-3.1,1.8c-0.2,0.2-0.4,0.5-0.6,0.6
	c-1,0.5-1.1,1.2-0.8,2.2c0.4,1.1,0.5,2.3,1,3.4c0.6,1.2,1,1.3,1.9,0.3c0.2-0.3,0.3-1,0.8-0.7c0.5,0.3-0.1,0.8-0.3,1
	c-0.7,1.1-1.6,2-3,2c-1.1,0-1.6-0.8-2-1.6c-0.5-1-0.8-2.2-1-3.3c-0.1-0.6-0.2-0.5-0.6-0.3c-0.4,0.2-0.6,0.5-0.7,0.9
	c-0.3,1.1-0.7,2.2-1,3.3c-0.1,0.6-0.4,0.7-1,0.7c-0.7-0.1-1.5,0-2.3,0c0.5-1.7,1-3.4,1.4-5.1c0.9-3.1,1.8-6.2,2.7-9.2
	c0.3-1,0.1-1.4-1-1.6c-0.2,0-0.5,0.1-0.5-0.3c0-0.3,0.3-0.3,0.6-0.3c1.2-0.2,2.4-0.3,3.6-0.5c1-0.1,1.1-0.1,0.8,0.9
	c-0.9,3.3-1.8,6.6-2.8,9.8C54.6,161.9,54.7,162,54.7,162.1z"/>
<path class="st9" d="M7.7,168.6c-1.3,0-2.5-0.4-3.6-0.7c-0.7-0.2-1.4-0.4-1.8,0.5c-0.1,0.2-0.3,0.3-0.5,0.2
	c-0.3-0.1-0.2-0.3-0.2-0.5c0.2-1.5,0.5-3.1,0.7-4.6c0-0.3,0.2-0.3,0.4-0.3c0.3,0,0.5,0.2,0.4,0.5c0,0.8,0.3,1.6,0.7,2.3
	c0.7,1.3,2,2,3.8,1.8c1.5-0.1,2.4-0.9,2.8-2.4c0.2-0.9,0.1-1.7-0.5-2.4c-0.8-0.9-1.7-1.8-2.7-2.4c-1-0.6-1.8-1.5-2.5-2.4
	c-1.4-2.1-0.3-5.4,2.1-6.3c1.6-0.6,3.2-0.6,4.8-0.1c0.9,0.3,1.9,0.7,2.8-0.2c0.1-0.1,0.4-0.1,0.5,0c0.2,0.1,0.1,0.3,0,0.5
	c-0.3,1.3-0.5,2.6-0.8,3.8c0,0.2,0,0.5-0.4,0.4c-0.4,0-0.5-0.2-0.5-0.5c0-0.7-0.2-1.3-0.5-1.9c-0.6-1.4-2.1-2-3.7-1.6
	c-1.2,0.3-2,1.4-1.9,2.9c0.1,1.1,0.9,1.7,1.6,2.2c1.2,1,2.5,1.8,3.5,3c1.6,2,1.7,4.3,0.3,6.4c-0.7,1-1.9,1.5-3,1.8
	C9,168.5,8.3,168.7,7.7,168.6z"/>
<path class="st7" d="M292.1,156.8c-0.4,1.2-0.7,2.2-1,3.3c-0.1,0.2-0.3,0.5,0,0.6c0.3,0.1,0.4-0.2,0.5-0.4c0.6-1,1.4-1.8,2.3-2.6
	c0.8-0.7,1.8-1.1,2.9-0.9c1.1,0.1,1.5,0.7,1.5,1.7c0,1.5-0.7,2.9-1.2,4.2c-0.3,0.9-0.7,1.8-1,2.7c-0.1,0.4-0.3,0.9,0.1,1.2
	c0.5,0.3,0.8-0.2,1.1-0.5c0.3-0.3,0.5-0.7,0.8-1c0.1-0.1,0.3-0.1,0.4-0.1c0.2,0.1,0.1,0.2,0,0.4c-0.8,1.5-1.8,2.6-3.6,2.9
	c-1.4,0.3-2.3-0.7-2-2.1c0.4-1.9,1-3.8,1.8-5.6c0.1-0.3,0.2-0.7,0.3-1c0.1-0.4,0.2-0.7-0.2-1c-0.4-0.3-0.7-0.1-1,0.1
	c-0.9,0.7-1.7,1.5-2.2,2.5c-1.1,2-2,4-2.5,6.3c-0.1,0.5-0.3,0.7-0.8,0.6c-0.6,0-1.2,0-1.8,0c-0.7,0-0.6-0.2-0.5-0.7
	c0.8-2.6,1.6-5.2,2.3-7.8c0.3-1.1,0.3-1.2-0.9-1.5c-0.2,0-0.3-0.1-0.3-0.3c0-0.3,0.3-0.4,0.5-0.4c1.1,0,2.3-0.2,3.4-0.4
	C291.3,157,291.6,156.9,292.1,156.8z"/>
<path class="st7" d="M97.4,156.8c-0.4,1.2-0.7,2.2-1,3.3c-0.1,0.2-0.3,0.5,0,0.6c0.3,0.1,0.4-0.2,0.5-0.4c0.6-1,1.4-1.8,2.3-2.6
	c0.8-0.8,1.8-1.1,3-0.9c1,0.2,1.4,0.6,1.4,1.6c0,1.6-0.7,3-1.2,4.4c-0.3,1-0.7,2-1,3c-0.1,0.3-0.2,0.7,0.2,0.9
	c0.4,0.2,0.6-0.1,0.8-0.3c0.4-0.4,0.7-0.8,1-1.2c0.1-0.1,0.3-0.2,0.4-0.1c0.2,0.1,0.1,0.2,0,0.4c-0.8,1.4-1.8,2.6-3.5,2.9
	c-1.5,0.3-2.4-0.6-2.1-2.1c0.4-2.1,1.2-4.1,1.9-6.1c0.2-0.5,0.6-1.1,0-1.5c-0.6-0.5-1.1,0.1-1.5,0.5c-1.5,1.2-2.2,2.8-2.9,4.5
	c-0.6,1.3-1,2.6-1.4,4c-0.1,0.4-0.3,0.6-0.7,0.5c-0.8,0-2,0.3-2.3-0.2c-0.4-0.5,0.3-1.5,0.5-2.2c0.6-2.1,1.2-4.3,1.8-6.4
	c0.2-0.8-0.1-1.1-0.8-1.2c-0.2,0-0.5,0.1-0.5-0.3c0-0.4,0.4-0.4,0.6-0.4C94.4,157.4,95.8,157.1,97.4,156.8z"/>
<path class="st7" d="M83.4,156.8c-0.9,2.7-1.7,5.3-2.5,7.9c0,0.1-0.1,0.2-0.1,0.3c-0.2,0.5-0.5,1.1,0.1,1.5c0.6,0.4,1.1-0.1,1.4-0.5
	c1.8-1.6,2.8-3.8,3.6-6c0.3-0.9,0.6-1.8,0.8-2.6c0.1-0.4,0.3-0.4,0.6-0.4c0.8,0,1.6,0,2.5,0c-0.4,1.2-0.8,2.4-1.1,3.5
	c-0.5,1.7-1,3.5-1.5,5.3c-0.1,0.3-0.1,0.6,0.2,0.8c0.4,0.2,0.6-0.1,0.8-0.3c0.3-0.4,0.7-0.7,1-1.1c0.2-0.2,0.4-0.3,0.6-0.1
	c0.3,0.2,0,0.4-0.1,0.5c-0.8,1.2-1.7,2.3-3.1,2.6c-1.9,0.5-2.8-0.4-2.4-2.3c0.1-0.3,0.3-0.6,0-0.8c-0.4-0.2-0.5,0.3-0.7,0.5
	c-1,1.2-2,2.4-3.6,2.7c-1.7,0.3-2.7-0.8-2.4-2.4c0.3-1.4,0.8-2.8,1.3-4.1c0.3-0.8,0.5-1.6,0.6-2.4c0.1-0.7-0.1-1.1-0.9-1.2
	c-0.2,0-0.5,0.1-0.5-0.3c0-0.3,0.2-0.4,0.5-0.4C80.1,157.4,81.7,157,83.4,156.8z"/>
<path class="st9" d="M160.2,162.8c0.3,0,0.5-0.1,0.8,0c0.1,0,0.2,0.3,0.2,0.5c0,0.3-0.2,0.2-0.4,0.3c-0.5,0.1-0.9,0.4-0.6,1
	c0,0.1,0.1,0.2,0.1,0.2c-0.3,0.8-0.1,1.6,0.2,2.3c0.1,0.3-0.1,0.2-0.2,0.2c-0.6-0.5-0.6-1.3-0.7-2.1c-0.4,0-0.5,0.4-0.7,0.7
	c-0.8,1.2-1.8,2.1-3.3,2.4c-1.4,0.2-2.3-0.5-2.1-1.9c0.3-2,0.9-3.9,1.5-5.8c0.7-2.3,1.5-4.6,2-7c0.2-1.1,0.1-1.3-1-1.5
	c-0.2,0-0.5,0.1-0.5-0.3c0-0.3,0.3-0.3,0.6-0.3c1.6-0.1,3.1-0.4,4.8-0.7c-0.5,1.8-1.1,3.5-1.6,5.2c-0.9,3.1-1.8,6.3-2.7,9.4
	c-0.1,0.3-0.3,0.8,0.1,1c0.4,0.2,0.8-0.1,1.1-0.4c0.3-0.3,0.5-0.6,0.8-0.9c0.1-0.1,0.2-0.2,0.2-0.3c0.7-0.7,0.7-0.7,1.1-1.7
	c0.1-0.1,0.2-0.2,0.1-0.4C160.1,162.9,160.2,162.8,160.2,162.8z"/>
<path class="st7" d="M242.7,151c-1.4,4.6-2.7,9.1-4,13.6c-0.1,0.4-0.2,0.9-0.3,1.3c0,0.2-0.1,0.5,0.2,0.6c0.3,0.2,0.5,0.1,0.7-0.1
	c0.5-0.5,0.9-1,1.4-1.5c0.1-0.1,0.3-0.2,0.4-0.1c0.1,0.1,0.1,0.3,0,0.4c-0.9,1.4-1.9,2.7-3.7,3c-1.5,0.2-2.4-0.7-2-2.1
	c0.8-3.6,2-7.2,3.1-10.7c0.2-0.6,0.3-1.2,0.4-1.8c0.2-1.1,0-1.3-1.1-1.5c-0.2,0-0.4,0.1-0.4-0.3c0-0.3,0.2-0.3,0.4-0.3
	C239.4,151.6,241,151.2,242.7,151z"/>
<path class="st7" d="M42.4,168.4c-2,0-3.9-1.7-3.2-5c0.7-3.2,2.7-5.4,5.8-6.5c0.8-0.3,1.7-0.3,2.5-0.1c1.2,0.2,2,1.3,1.8,2.5
	c-0.1,0.5-0.4,1-0.9,1.2c-0.6,0.2-1.2,0.2-1.7-0.2c-0.6-0.5-0.5-1.1-0.1-1.7c0.1-0.2,0.5-0.4,0.2-0.8c-0.3-0.3-0.6-0.3-1-0.2
	c-0.6,0.2-1.2,0.6-1.6,1.2c-1.1,1.8-1.9,3.7-1.9,5.8c0,1,0.3,1.8,1.2,2.2c0.9,0.4,1.8,0,2.5-0.5c0.5-0.4,0.9-0.8,1.3-1.3
	c0.2-0.3,0.4-0.1,0.6,0c0.3,0.1,0.1,0.3,0,0.5C46.7,167.1,45.3,168.4,42.4,168.4z"/>
<path class="st7" d="M270.1,158.1c-0.2,0-0.4,0-0.6-0.1c-0.2,0-0.6,0.2-0.6-0.3c0-0.4,0.1-0.6,0.4-0.7c1.7-0.6,3-1.8,4.1-3.2
	c0.2-0.3,0.5-0.5,0.8-0.3c0.4,0.2,0.1,0.5,0,0.7c-0.2,0.9-0.4,1.8-0.7,2.8c0.5,0,0.9,0,1.3,0c0.4,0,0.6,0.1,0.6,0.5
	c0,0.5-0.2,0.5-0.6,0.5c-1.7,0.1-1.7,0.1-2.2,1.7c-0.6,2-1.1,3.9-1.7,5.9c-0.1,0.3-0.2,0.7,0.1,0.9c0.4,0.2,0.7,0,0.9-0.3
	c0.4-0.4,0.8-0.9,1.2-1.3c0.1-0.1,0.2-0.3,0.4-0.1c0.2,0.1,0.3,0.2,0.1,0.4c-1,1.3-1.9,2.7-3.7,3c-1.5,0.3-2.5-0.7-2.1-2.2
	C268.6,163.4,269.3,160.8,270.1,158.1z"/>
<path class="st7" d="M216,157c-1.2,1.3-2.2,2.4-3.2,3.6c-1.4,1.6-2.8,3.1-4.2,4.7c-0.2,0.3-0.1,0.4,0.2,0.5c1.2,0.5,1.9,1.5,2.5,2.6
	c0.1,0.3,0.3,0.5,0.5,0.7c0.3,0.4,0.7,0.5,1.1,0.2c0.4-0.3,0.1-0.6-0.1-0.9c-0.3-0.5-0.3-0.9,0.1-1.3c0.4-0.5,0.9-0.6,1.4-0.4
	c0.5,0.2,0.9,0.5,0.9,1.1c0,1.1-0.9,2-2.2,2.1c-1.2,0.1-2.3-0.2-3.4-0.8c-0.5-0.3-1-0.6-1.6-0.9c-0.6-0.3-1.2-0.4-1.8,0.1
	c-0.2,0.2-0.5,0.4-0.8,0.1c-0.4-0.4,0-0.6,0.2-0.8c2-2.3,4.1-4.6,6.2-7c0.3-0.3,0.8-0.7,0.7-1.1c-0.1-0.4-0.8-0.1-1.2-0.2
	c-0.6,0-1.2,0-1.7,0c-0.9,0-1.7,0.1-2.1,1.2c-0.1,0.3-0.3,0.4-0.6,0.3c-0.5-0.2-0.1-0.4-0.1-0.6c0.3-0.9,0.6-1.8,0.8-2.7
	c0.1-0.3,0.2-0.5,0.5-0.5C210.6,157,213.1,157,216,157z"/>
<path class="st7" d="M255.1,153.6c-0.3,1-0.5,2-0.9,2.9c-0.2,0.4-0.1,0.6,0.4,0.5c0.3,0,0.6,0,0.9,0c0.4,0,0.5,0.1,0.5,0.5
	c0,0.4-0.2,0.5-0.6,0.5c-1.6,0.1-1.6,0.1-2.1,1.7c-0.6,1.9-1.3,3.7-1.6,5.6c0,0.2-0.1,0.4-0.1,0.6c0,0.2-0.1,0.5,0.2,0.6
	c0.3,0.1,0.5,0,0.7-0.2c0.4-0.3,0.7-0.8,1.1-1.1c0.2-0.2,0.3-0.6,0.7-0.3c0.3,0.3-0.1,0.4-0.2,0.6c-0.8,1.4-1.8,2.4-3.4,2.7
	c-1.4,0.3-2.3-0.5-2.2-1.9c0.1-0.9,0.4-1.7,0.6-2.5c0.5-1.7,1-3.4,1.5-5.1c0.2-0.5,0.1-0.7-0.4-0.6c-0.2,0-0.6,0.2-0.7-0.3
	c0-0.4,0.1-0.6,0.5-0.8c1.6-0.6,2.8-1.7,3.9-3C254.3,153.6,254.6,153.4,255.1,153.6z"/>
<path class="st7" d="M176,168.4c-0.4,0.1-0.9,0-1.4-0.2c-0.6-0.2-1.2-0.4-1.8,0.1c-0.2,0.2-0.7,0.2-0.6-0.4c0.2-1,0.3-2.1,0.5-3.1
	c0-0.2-0.1-0.4,0.2-0.4c0.2,0,0.4,0,0.5,0.3c0.1,0.6,0.3,1.3,0.7,1.9c0.5,0.8,1.3,1.2,2.2,1c1-0.2,1.4-1.2,0.8-2.3
	c-0.5-0.9-1.3-1.7-2-2.5c-1.1-1.2-1.7-2.7-1-4.3c0.6-1.5,2.7-2.3,4.4-1.6c0.7,0.3,1.4,0.7,2.1-0.1c0.2-0.2,0.6-0.1,0.5,0.4
	c-0.2,0.9-0.3,1.8-0.4,2.7c0,0.2,0,0.5-0.4,0.6c-0.4,0-0.4-0.3-0.5-0.6c-0.2-0.7-0.4-1.4-1-1.9c-0.6-0.6-1.6-0.7-2.2-0.3
	c-0.5,0.4-0.6,1.3-0.1,2.1c0.4,0.6,0.8,1,1.3,1.6c0.5,0.6,1,1.2,1.4,1.8c0.7,1.1,0.9,2.3,0.2,3.5C179,167.7,177.7,168.4,176,168.4z"
	/>
<path class="st9" d="M247.6,156.8c-0.6,2.9-1.6,5.5-2.3,8.2c-0.1,0.5-0.4,1.2,0.1,1.5c0.5,0.3,1-0.3,1.3-0.7
	c0.3-0.3,0.5-0.6,0.7-0.9c0.2-0.3,0.3-0.1,0.4,0c0.2,0.1,0.1,0.2,0,0.4c-0.9,1.4-1.9,2.7-3.6,3c-1.6,0.3-2.5-0.7-2.1-2.2
	c0.6-2.1,1.2-4.2,1.7-6.4c0.3-1.2,0.3-1.4-1-1.6c-0.2,0-0.3,0-0.3-0.3c0-0.3,0.1-0.4,0.4-0.4C244.5,157.3,246,157,247.6,156.8z"/>
<path class="st7" d="M146.7,166.4c0.1-0.3,0.2-0.8,0.3-1.3c0.5-1.9,1.1-3.7,1.6-5.6c0.3-1,0.1-1.3-1-1.5c-0.2,0-0.4,0-0.4-0.3
	c0-0.3,0.1-0.4,0.4-0.4c1.5-0.1,2.9-0.3,4.3-0.5c0.4-0.1,0.4,0.2,0.3,0.5c-0.6,1.9-1.1,3.7-1.6,5.6c-0.3,1-0.7,2-0.7,3.1
	c0,0.2-0.1,0.5,0.2,0.6c0.2,0.1,0.4,0,0.7-0.1c0.5-0.3,0.8-0.8,1.1-1.2c0.2-0.2,0.3-0.6,0.7-0.3c0.3,0.3-0.1,0.4-0.2,0.6
	c-0.8,1.4-1.9,2.5-3.6,2.7C147.6,168.5,146.7,167.8,146.7,166.4z"/>
<path class="st7" d="M222.1,165c0,0.1,0,0.2,0,0.3c-0.7,0.1-0.8,0.8-1.2,1.3c-0.9,1.2-2.6,2-3.7,1.8c-0.8-0.2-1.2-0.7-1.2-1.6
	c0.1-1.3,0.5-2.5,0.8-3.8c0.3-1.1,0.7-2.3,1-3.4c0.3-1,0.1-1.3-0.9-1.4c-0.2,0-0.5,0-0.5-0.4c0-0.3,0.2-0.3,0.4-0.3
	c1.5,0,3-0.4,4.7-0.6c-0.7,2.3-1.3,4.6-2,6.9c-0.2,0.7-0.4,1.4-0.6,2.2c-0.1,0.2-0.1,0.5,0.1,0.7c0.3,0.2,0.5,0.1,0.8-0.1
	c0.4-0.3,0.8-0.6,1-1.1C221.2,164.9,221.5,164.7,222.1,165z"/>
<path class="st7" d="M69.9,161.2c-0.2,0.8-0.3,1.6-0.5,2.3c-0.1,0.3-0.2,0.5-0.6,0.5c-1.8,0-3.6,0-5.4,0c-0.3,0-0.5,0-0.4-0.5
	c0.5-2.3,0.4-2.3,2.8-2.3C67.2,161.2,68.5,161.2,69.9,161.2z"/>
<path class="st9" d="M245.3,152.9c0-0.9,0.7-1.6,1.6-1.7c0.9,0,1.8,0.8,1.8,1.7c0,0.8-0.8,1.6-1.8,1.6
	C246,154.5,245.3,153.9,245.3,152.9z"/>
<path class="st9" d="M150.1,152.8c0-0.9,0.8-1.6,1.7-1.6c0.9,0,1.7,0.9,1.7,1.7c0,0.9-0.9,1.6-1.8,1.6
	C150.6,154.4,150,153.8,150.1,152.8z"/>
<path class="st9" d="M220.8,154.5c-1,0-1.7-0.7-1.7-1.6c0-0.8,1-1.6,1.8-1.6c1,0,1.7,0.8,1.7,1.7
	C222.6,153.9,221.9,154.5,220.8,154.5z"/>
<path class="st9" d="M262.1,153.6c0,0.8-0.8,1.5-1.7,1.5c-0.9,0-1.7-0.8-1.7-1.6c0-0.9,0.8-1.6,1.7-1.6
	C261.4,152,262.2,152.7,262.1,153.6z"/>
<path class="st9" d="M266.1,155.1c-0.9,0-1.7-0.7-1.7-1.5c0-0.8,0.8-1.6,1.6-1.6c0.9,0,1.7,0.7,1.7,1.6
	C267.7,154.4,267,155.1,266.1,155.1z"/>
<path class="st10" d="M204.9,43.7c0.3,0.3,0.2,0.7,0.2,1c0,14.7,0,29.4,0,44.1c0,0.3,0.1,0.6-0.1,0.9c0-5.2,0-10.3,0-15.5
	c0-9.9,0-19.8,0-29.7C204.9,44.3,204.9,44,204.9,43.7z"/>
<path class="st11" d="M155.7,98.8c0.2-0.3,0.2-0.7,0.2-1c0-7.5,0-15,0-22.5c0-0.7-0.1-1-0.9-1c-4.4,0-8.8,0-13.2,0
	c-0.3,0-0.6-0.1-0.8,0.2c-0.3-0.1-0.6,0.1-0.8-0.2c0.1-0.3,0.3-0.2,0.4-0.2c4.9,0,9.8,0,14.8,0c0.6,0,0.7,0.2,0.7,0.7
	c0,7.7,0,15.5,0,23.2C156,98.4,156.2,98.8,155.7,98.8z"/>
<path class="st12" d="M196.4,49.7c-12.2,0-24.5,0-36.7,0c-0.4,0-0.8-0.2-1.1,0.2c-0.2-0.1-0.4-0.2-0.6-0.2c0.1-0.3,0.4-0.2,0.5-0.2
	c12.5,0,25,0,37.5,0c0.1,0,0.3,0,0.4,0C196.4,49.5,196.4,49.6,196.4,49.7C196.4,49.7,196.4,49.7,196.4,49.7z"/>
<path class="st13" d="M161.2,55.4c0.3,0.2,0.2,0.6,0.2,0.9c0,12.2,0,24.3,0,36.5c0,0.3,0.1,0.6-0.2,0.9c0-0.5,0-1,0-1.5
	c0-12.2,0-24.4,0-36.6C161.2,55.6,161.2,55.5,161.2,55.4z"/>
<path class="st14" d="M175.9,71.7c-0.2-0.2-0.2-0.5-0.2-0.7c0-4.5,0-9,0-13.5c0-0.3-0.1-0.6,0.2-0.8c0,4.5,0,8.9,0,13.4
	C175.9,70.6,175.9,71.2,175.9,71.7z"/>
<path class="st15" d="M223,91.6c-0.3-0.2-0.2-0.5-0.2-0.8c0-4.1,0-8.1,0-12.2c0-0.3-0.1-0.6,0.2-0.8C223,82.4,223,87,223,91.6z"/>
<path class="st16" d="M193.7,79.9c0.2-0.2,0.2-0.4,0.2-0.6c0-2.6,0-5.1,0-7.7c0-0.2,0-0.5-0.2-0.6c0-0.1,0-0.2,0.1-0.3
	c0.1-0.1,0.2,0,0.2,0.1c0,0.1,0,0.2,0,0.3c0,2.9,0,5.7,0,8.6c0,0.2,0.1,0.5-0.2,0.5C193.8,80.3,193.8,80.1,193.7,79.9z"/>
<path class="st17" d="M196.4,49.7c0-0.1,0-0.1,0-0.2c0.1,0,0.2,0.1,0.2,0.2c0,3.1,0,6.3,0,9.4c0,0.3-0.1,0.5-0.2,0
	C196.4,56,196.4,52.8,196.4,49.7z"/>
<path class="st18" d="M134.2,101.4c0.5-0.3,1.1-0.2,1.7-0.1c1.4,0,2.8-0.2,4.2,0.1C138.1,101.5,136.1,101.5,134.2,101.4z"/>
<path class="st19" d="M138.7,46.9c-1.5,0.2-3,0.2-4.5,0C135.7,46.9,137.2,46.9,138.7,46.9z"/>
<path class="st20" d="M140.4,92.7c-1.3,0.3-2.7,0.3-4,0C137.8,92.7,139.1,92.7,140.4,92.7z"/>
<path class="st20" d="M253.9,55.1c-0.2-1.2-0.2-2.4,0-3.7C253.9,52.7,253.9,53.9,253.9,55.1z"/>
<path class="st7" d="M160.1,162.9c0.1,0,0.4,0,0.3,0.2c0,0.2-0.3,0.1-0.4,0.1C160,163.2,160,163,160.1,162.9z"/>
<path class="st21" d="M228.6,166c0.1-0.2,0.1-0.4,0.4-0.3c0.1,0.1,0,0.2-0.1,0.3C228.8,166,228.7,166,228.6,166z"/>
<path class="st8" d="M278.8,100.2c-0.9,0-1.8-0.1-2.7-0.1c-4.8-0.5-9.4-1.8-13.7-4c-3.4-1.7-6.4-3.9-9-6.7
	c-3.3-3.5-6.4-7.2-9.3-10.9c-1.6-2.1-3.2-4.2-4.8-6.2c-0.4-0.5-0.4-0.8,0.3-1c2.7-0.7,5.2-1.9,7.4-3.6c2.4-1.8,4.3-4,5.4-6.8
	c0.8-1.8,1.3-3.7,1.4-5.7c-0.1-1.2-0.1-2.4,0-3.7c-0.3-3.2-1.3-6.2-3.1-8.8c-1.6-2.4-3.7-4.1-6.2-5.4c-4-2.1-8.3-2.7-12.8-2.7
	c-2.5,0-4.9,0-7.4,0c-7.6,0-15.1,0-22.7,0c-0.2,0-0.6-0.2-0.7,0.1c-0.1,0.3,0.3,0.4,0.5,0.5c1.6,1.2,2.4,2.9,3,4.8
	c0.4,1.2,0.2,2.5,0.5,3.8c0.2,0.3,0.1,0.6,0.1,0.9c0,14.7,0,29.4,0,44.1c0,0.3,0.1,0.6-0.1,1c0,1.7,0,3.5-0.4,5.2
	c-0.5,2.5-1.2,4.9-3.9,6c0,0,0,0.1,0,0.1c9.1,0,18.2,0,27.6,0c-2.6-1.4-3.8-3.6-4.6-6.1c-0.3-1.1-0.4-2.2-0.7-3.3
	c-0.1-0.1-0.1-0.3-0.1-0.5c0-4.3,0-8.6,0-12.8c0-0.2,0-0.4,0.1-0.5c0.3,0,0.4,0.2,0.5,0.4c0.9,1.2,1.7,2.3,2.6,3.5
	c2.3,2.9,4.3,6,6.7,8.8c3,3.5,6.5,6.5,10.5,8.8c3.4,2,7,3.3,10.9,3.9c4.1,0.7,8.2,1.2,12.4,0.9c2.3-0.2,4.5-0.6,6.7-1
	c2-0.4,3.9-1.2,5.7-2.1c0.2-0.1,0.5,0,0.5-0.4C279.4,100.3,279.1,100.2,278.8,100.2z M238.7,56.8c-0.3,0.9-0.3,1.7-0.7,2.6
	c-1.3,3.4-3.7,5.4-7.2,6.4c-2.3,0.6-4.6,0.7-7,0.6c-0.3,0-0.7-0.1-1-0.2c-0.2-0.2-0.1-0.4-0.1-0.6c0-6.7,0-13.4,0-20.1
	c0-0.2,0-0.4,0.1-0.5c1.4-0.6,3-0.3,4.5-0.3c1.2,0,2.5,0.3,3.7,0.6c4.2,1,7,3.5,7.8,7.8C238.8,54.4,238.8,55.6,238.7,56.8z"/>
<path class="st15" d="M222.8,45.1c0,6.7,0,13.3,0,20c0,0.4,0,0.8,0,1.1c-0.3-0.2-0.2-0.5-0.2-0.8c0-6.5,0-13.1,0-19.6
	C222.6,45.6,222.5,45.3,222.8,45.1z"/>
<path class="st22" d="M238.7,56.8c0-1.2,0-2.4,0-3.6c0.1-0.2,0.2-0.4,0.2,0c0,1.3,0,2.6,0,4C238.6,57.1,238.7,56.9,238.7,56.8z"/>
<path class="st8" d="M83.4,99.1c-0.8,0.6-1.6,1.2-2.5,1.9c10.3,0,20.5,0,30.8,0c-4.2-2.3-5.8-5-7.1-8.2c-1.2-2.8-2.3-5.6-3.4-8.5
	c-2.2-5.5-4.5-11.1-6.8-16.6c-1.4-3.5-2.8-7-4.2-10.5c-1.5-3.8-3.1-7.6-4.7-11.4c-1.4-3.5-2.9-6.9-4.2-10.5
	c-0.2-0.6-0.6-0.9-1.3-0.9c-7.1,0-14.2,0-21.2,0c-0.3,0-0.5,0-0.8,0c0,0.4,0.3,0.3,0.5,0.4c3.3,1.4,4.9,4.4,3.9,7.8
	c-0.9,3-2.1,6-3,9c-1.5,4.5-3.1,9-4.6,13.6c-0.6,1.9-1.3,3.7-1.9,5.6c-1.3,3.7-2.6,7.4-3.8,11.1c-1,3.1-2,6.2-3.1,9.3
	c-1.1,3.3-3.1,6.1-5.7,8.5c-0.4,0.3-0.8,0.6-1.2,1c0.1,0.1,0.1,0.2,0.2,0.2c7.6,0,15.2,0,23,0c-0.5-0.3-0.8-0.5-1.1-0.8
	c-3.1-2.6-4.3-5.1-3.1-9.2c0.9-3.1,2.1-6.2,3.1-9.3c0.2-0.6,0.6-0.5,1-0.5c5.9,0,11.9,0,17.8,0c1.1,0,1.5,0.2,1.9,1.3
	c1.2,3.3,2.4,6.6,3.6,9.9C86.5,95.3,85.5,97.3,83.4,99.1z M76.8,71.1c-3.9,0-7.8,0-11.8,0c-0.2,0-0.4,0-0.5-0.1
	c0.1-1.4,0.7-2.6,1.1-3.9c1.4-4.7,2.9-9.4,4.4-14c0.1-0.2-0.1-0.6,0.3-0.6c0.3,0,0.3,0.3,0.4,0.5c1.5,4,3,8.1,4.5,12.1
	c0.6,1.7,1.2,3.3,1.9,5c0.1,0.3,0.1,0.6,0.1,0.9C77.2,71.1,77,71.1,76.8,71.1z"/>
<path class="st23" d="M64.6,71c4.2,0,8.5,0,12.7,0c-0.2,0.3-0.5,0.2-0.8,0.2c-3.7,0-7.4,0-11.2,0C65.1,71.2,64.8,71.3,64.6,71z"/>
<path class="st7" d="M114.7,164.7c1.2-4.3,2.5-8.6,3.8-12.9c0.2-0.8,0.1-0.9-0.6-0.7c-1.3,0.3-2.5,0.4-3.8,0.5
	c-0.2,0-0.7-0.2-0.7,0.3c0,0.4,0.4,0.2,0.6,0.3c0.6,0.1,1.1,0.4,0.9,1.1c-0.3,1.4-0.7,2.9-1.2,4.3c-1.4-1.2-2.8-0.9-4.1-0.1
	c-1.5,0.9-2.7,2.1-3.5,3.6c-0.8,1.5-1.5,3.1-1.3,4.9c0.2,1.5,1.3,2.5,2.8,2.5c1.5,0,2.5-0.8,3.3-1.9c0.2-0.2,0.3-0.6,0.5-0.5
	c0.3,0.1,0.1,0.4,0.1,0.7c0,1.4,0.9,2.1,2.2,1.6c1.3-0.5,2.2-1.5,2.9-2.6c0.1-0.2,0.1-0.4-0.1-0.5c-0.2-0.1-0.3,0-0.4,0.1
	c-0.3,0.4-0.7,0.9-1.1,1.2c-0.2,0.1-0.3,0.3-0.5,0.2c-0.3-0.1-0.2-0.4-0.2-0.6C114.5,165.6,114.6,165.2,114.7,164.7z M113.3,159.2
	c-0.6,2.4-1.1,4.9-2.9,6.8c-0.5,0.5-1,1-1.7,0.7c-0.8-0.3-0.8-1-0.8-1.7c0.2-2,1-3.7,2-5.4c0.4-0.7,0.9-1.3,1.6-1.6
	c0.4-0.2,0.8-0.4,1.2-0.1C113.2,158.2,113.4,158.7,113.3,159.2z"/>
<path class="st7" d="M171.7,165.2c-0.3-0.2-0.5,0-0.6,0.2c-0.3,0.3-0.5,0.7-0.8,1c-0.2,0.2-0.4,0.5-0.7,0.3
	c-0.3-0.2-0.2-0.5-0.1-0.8c0.4-1.5,0.8-3.1,1.3-4.6c1-3.4,2-6.9,3-10.3c-1.7,0.3-3.2,0.6-4.9,0.6c-0.2,0-0.5-0.1-0.5,0.3
	c0,0.4,0.3,0.2,0.5,0.3c0.6,0.1,1.3,0.2,1.1,1.1c-0.4,1.4-0.8,2.9-1.2,4.4c-1.3-1.2-2.6-1-3.9-0.3c-2.2,1.2-3.7,3.1-4.6,5.5
	c0.2,0.2,0.5,0,0.7,0.3c-0.1,0.3-0.4,0.2-0.5,0.4c-0.3,0.3-0.5,0.5-0.4,1c0.2,1,0.1,2,0.5,2.9c0.5,0.7,1.2,1.1,2.1,1.1
	c1.4,0,2.4-0.7,3.2-1.6c0.3-0.3,0.4-0.7,0.9-0.9c0,0.2,0,0.4,0,0.6c-0.3,1.6,1.2,2.4,2.6,1.6c1.1-0.5,1.8-1.4,2.5-2.4
	C171.7,165.6,172,165.4,171.7,165.2z M168.1,159.8c-0.5,2.1-1.2,4.1-2.5,5.8c-0.2,0.2-0.3,0.4-0.5,0.6c-0.5,0.4-1,0.7-1.6,0.4
	c-0.6-0.3-0.6-0.9-0.7-1.4c0.3-2.6,1.3-4.8,2.8-6.7c0,0,0.1-0.1,0.1-0.1c0.5-0.4,1.1-0.9,1.8-0.5
	C168.4,158.3,168.2,159.1,168.1,159.8z"/>
<path class="st7" d="M191.3,156.7c-1.2,0-2.1,0.5-2.9,1.3c-0.3,0.2-0.5,0.6-1,0.5c0.2-0.6,0.3-1.1,0.4-1.7c-1.5,0.2-3,0.4-4.5,0.5
	c-0.2,0-0.3,0.2-0.4,0.4c0,0.3,0.2,0.3,0.4,0.3c0.7,0.1,1.1,0.3,0.9,1.2c-0.5,1.5-0.8,3.1-1.2,4.7c-0.7,2.5-1.4,5-2.1,7.4
	c-0.2,0.7-0.6,1.1-1.3,1.2c-0.2,0-0.5-0.1-0.5,0.3c0,0.4,0.3,0.3,0.5,0.3c1.8,0,3.6,0,5.4,0c0.2,0,0.5,0.1,0.5-0.3
	c0-0.4-0.3-0.3-0.5-0.3c-0.6-0.1-1.3-0.2-1.1-1.1c0.2-1.2,0.6-2.4,1-3.6c1.7,0.9,3.2,0.5,4.6-0.4c2.6-1.7,3.9-4.1,4.4-7.1
	C194.4,158.4,193.2,156.8,191.3,156.7z M190.8,160.1c-0.4,2.3-1,4.5-2.5,6.4c-0.2,0.2-0.4,0.5-0.6,0.6c-0.6,0.4-1.3,0.7-2,0.3
	c-0.6-0.4-0.4-1.1-0.3-1.6c0.5-2,1.1-4,2.1-5.9c0.3-0.5,0.6-0.8,1-1.1c0.5-0.3,1-0.6,1.6-0.3C190.8,158.9,190.9,159.5,190.8,160.1z"
	/>
<path class="st7" d="M24.6,156.8c-1.1,0-2.1,0.4-2.9,1.1c-0.3,0.3-0.6,0.8-1.2,0.9c0-0.7,0.4-1.2,0.5-1.9c-1.5,0.2-3.1,0.4-4.6,0.6
	c-0.2,0-0.3,0.2-0.3,0.4c0,0.3,0.2,0.3,0.4,0.3c0.5,0,1,0.1,1,0.7c0,0.4-0.1,0.8-0.2,1.2c-1,3.7-2.1,7.5-3.1,11.2
	c-0.2,0.7-0.6,1.2-1.3,1.4c-0.2,0-0.5-0.1-0.5,0.3c0,0.4,0.4,0.3,0.6,0.3c1.7,0,3.5,0,5.2,0c0.2,0,0.6,0.1,0.6-0.3
	c0-0.4-0.3-0.2-0.5-0.2c-0.8,0-1.1-0.4-1.1-1.2c0.1-1.1,0.5-2.1,0.8-3.1c0.1-0.4,0.4-0.3,0.6-0.2c1.2,0.6,2.4,0.4,3.5-0.2
	c3.2-1.7,4.7-4.5,5.1-7.9C27.3,158.5,26.5,156.9,24.6,156.8z M21.5,166.5c-0.2,0.2-0.4,0.5-0.6,0.6c-0.6,0.4-1.3,0.8-2.1,0.3
	c-0.7-0.4-0.4-1.1-0.2-1.7c0.4-1.5,0.8-3.1,1.4-4.6c0.4-1,1-1.8,1.8-2.4c0.5-0.4,1-0.5,1.5-0.2c0.5,0.3,0.7,0.8,0.7,1.4
	C23.6,162.3,22.8,164.5,21.5,166.5z"/>
<path class="st7" d="M267.1,165.2c-0.2-0.2-0.4,0-0.5,0.1c-0.3,0.3-0.6,0.7-0.9,1c-0.2,0.2-0.4,0.5-0.8,0.4
	c-0.4-0.2-0.3-0.6-0.2-0.9c0.2-1,0.5-2,0.8-2.9c0.6-1.8,1.1-3.5,1.7-5.3c0.2-0.5,0.2-0.9-0.5-0.7c-0.3,0.1-0.5,0.1-0.8,0
	c-0.9-0.2-1.6,0.2-1.7,1.2c0,0-0.1,0-0.1,0c-0.9-1.5-1.9-1.8-3.5-1.1c-0.8,0.4-1.6,0.9-2.2,1.5c-2,2-3.4,4.2-3.3,7.1
	c0.1,1.6,1.2,2.6,2.8,2.6c1.3,0,2.3-0.7,3.1-1.6c0.3-0.3,0.4-0.7,0.9-0.9c0,0.2,0.1,0.3,0,0.4c-0.2,0.7-0.1,1.4,0.6,1.8
	c0.7,0.5,1.5,0.4,2.2,0c1-0.6,1.8-1.4,2.5-2.4C267.2,165.6,267.3,165.4,267.1,165.2z M263.3,159.2c-0.3,2.6-1.1,4.9-2.8,6.9
	c-0.4,0.5-1,0.9-1.7,0.5c-0.7-0.3-0.8-0.9-0.8-1.5c0.2-2.5,1.3-4.6,2.7-6.6c0.1-0.2,0.3-0.3,0.5-0.4c0.4-0.3,0.9-0.7,1.4-0.4
	C263.3,158.1,263.4,158.7,263.3,159.2z"/>
<path class="st7" d="M234.2,165.2c-0.2-0.2-0.4-0.1-0.5,0.1c-0.4,0.4-0.7,0.8-1.1,1.2c-0.2,0.2-0.4,0.3-0.6,0.2
	c-0.3-0.1-0.3-0.4-0.2-0.7c0.1-0.7,0.2-1.4,0.4-2.1c0.7-2,1.3-3.9,1.9-5.9c0.3-1,0.3-1-0.8-1c-0.9,0-1.9-0.2-2,1.2
	c0,0-0.1,0-0.1,0.1c-0.9-1.5-1.9-1.9-3.4-1.2c-3.3,1.6-5.2,4.3-5.7,8c-0.1,0.1-0.1,0.2,0,0.3c0,2.2,1.3,3.5,3.4,3.1
	c1.4-0.3,2.4-1.2,3.1-2.4c0.1-0.1,0.2-0.2,0.3,0c0,0.1,0,0.3,0,0.4c-0.2,1.6,1,2.5,2.5,1.9c1.2-0.5,2.1-1.4,2.8-2.6
	C234.3,165.5,234.4,165.4,234.2,165.2z M230.5,159.1c-0.3,2.6-0.9,5-2.7,7c-0.5,0.5-1,1-1.7,0.7c-0.8-0.3-0.9-0.9-0.8-1.7
	c0.1-1.6,0.7-3.1,1.5-4.5c0.5-0.9,0.9-2,1.9-2.5c0.4-0.2,0.8-0.5,1.3-0.2C230.4,158.1,230.5,158.6,230.5,159.1z"/>
<path class="st7" d="M36.9,157c-0.5-0.2-1-0.2-1.5-0.2c-3.6,0.2-7.1,4.1-7.2,7.9c0,0.9,0.1,1.9,0.9,2.6c0.9,0.8,1.9,1.3,2.8,1.2
	c2.5,0,3.9-1.3,5-3c0.1-0.2,0.1-0.4-0.1-0.5c-0.2-0.1-0.4-0.2-0.6,0c-0.3,0.4-0.7,0.8-1.1,1.2c-0.8,0.8-1.8,1.1-2.6,0.7
	c-0.8-0.4-1.2-1.4-1-2.5c0.1-0.5,0.3-0.7,0.8-0.8c2-0.4,4-1,5.4-2.7C38.9,159.3,38.6,157.6,36.9,157z M36.1,158.6
	c0,2-1.7,3.6-3.6,4.1c-0.3,0.1-0.5,0-0.4-0.4c0.5-1.7,0.9-3.4,2.5-4.6c0.4-0.3,0.8-0.4,1.2-0.2C36.1,157.8,36.1,158.3,36.1,158.6z"
	/>
<path class="st9" d="M283.2,156.8c-0.9-0.2-1.8-0.1-2.6,0.3c-2.9,1.1-4.6,3.3-5.4,6.2c-0.8,2.9,0.9,5.1,3.8,5.2c2.2,0,3.6-1.3,4.7-3
	c0.1-0.2,0.1-0.4-0.1-0.5c-0.2-0.1-0.4-0.2-0.6,0.1c-0.2,0.3-0.4,0.5-0.6,0.8c-0.5,0.5-1,0.9-1.7,1.2c-1.1,0.4-2.1-0.3-2.2-1.5
	c-0.1-1.7-0.1-1.7,1.5-2.1c1.9-0.4,3.5-1.2,4.7-2.7C285.8,159.1,285.1,157.2,283.2,156.8z M279.2,162.8c-0.3,0-0.6,0-0.5-0.4
	c0.5-1.7,1.1-3.4,2.5-4.6c0.3-0.3,0.4-0.3,0.8-0.3c0.6-0.1,0.8,0.3,0.8,0.9C282.9,160.2,280.9,162.5,279.2,162.8z"/>
<path class="st9" d="M205.2,158.1c-0.2-0.8-1-1.1-1.8-1.3c-0.8-0.2-1.6-0.1-2.3,0.2c-3.2,1.1-5,3.4-5.8,6.6c-0.6,2.7,1,4.8,4.6,4.8
	c1.4,0,2.8-1.2,3.9-3c0.1-0.2,0.2-0.4-0.1-0.5c-0.2-0.1-0.3-0.3-0.5,0c-0.3,0.5-0.8,0.9-1.2,1.3c-0.9,0.8-1.9,1-2.7,0.4
	c-0.6-0.4-0.9-1.4-0.7-2.5c0.1-0.5,0.3-0.7,0.8-0.8c2.1-0.4,4-1.1,5.4-2.8C205.4,159.9,205.5,159,205.2,158.1z M200.4,162.4
	c-0.4,0.3-1,0.4-1.6,0.6c0.5-1.9,1.1-3.6,2.3-4.9c0.2-0.2,0.4-0.3,0.6-0.4c0.8-0.4,1.4,0,1.4,0.9C203,160.4,201.9,161.5,200.4,162.4
	z"/>
</svg>
